<svg width="20" height="20" viewBox="12 12 24 24" fill="none" xmlns="http://www.w3.org/2000/svg">
<path d="M21.3015 13.9465C18.6584 12.7109 17.1577 12.6583 14.4593 13.9465C12.3966 16.6876 12.8031 18.1164 14.4593 20.6056C12.4553 23.7078 12.5727 25.3608 14.4593 28.216C12.8914 30.1721 12.8977 31.3166 14.4593 32.9726C17.4831 34.4907 18.8778 34.0447 21.3015 32.9726C23.8953 34.5668 25.4166 34.0983 28.1438 32.9726C30.7169 34.3321 31.6738 34.0991 33.0311 32.9726C34.4424 30.899 34.1833 29.6199 33.0311 27.2647C34.3527 24.545 34.1869 23.1023 33.0311 20.6056C34.3886 18.1211 34.2557 16.6517 33.0311 13.9465C31.0351 12.6543 29.9694 12.7199 28.1438 13.9465C25.5546 12.6889 24.0618 12.7005 21.3015 13.9465Z" stroke="currentColor" stroke-width="1.5"/>
</svg>
